ffmpeg version N-82167-g5e96558 Copyright (c) 2000-2016 the FFmpeg developers
  built with gcc 5.4.0 (Ubuntu 5.4.0-6ubuntu1~16.04.2) 20160609
  configuration: --prefix=/root/ffmpeg_build --pkg-config-flags=--static --extra-cflags=-I/root/ffmpeg_build/include --extra-ldflags=-L/root/ffmpeg_build/lib --bindir=/root/bin --enable-gpl --enable-libass --enable-libfdk-aac --enable-libfreetype --enable-libmp3lame --enable-libopus --enable-libtheora --enable-libvorbis --enable-libx264 --enable-libx265 --enable-nonfree
  libavutil      55. 35.100 / 55. 35.100
  libavcodec     57. 65.100 / 57. 65.100
  libavformat    57. 57.100 / 57. 57.100
  libavdevice    57.  2.100 / 57.  2.100
  libavfilter     6. 66.100 /  6. 66.100
  libswscale      4.  3.100 /  4.  3.100
  libswresample   2.  4.100 /  2.  4.100
  libpostproc    54.  2.100 / 54.  2.100
Input #0, matroska,webm, from '/media/yubikiri/bot/queue/3AnimePahe_Detective_Conan_-_035_720p_Fansub.mkv':
  Metadata:
    title           : 3|Text||0|0
    ENCODER         : Lavf57.57.100
  Duration: 00:24:28.01, start: 0.000000, bitrate: 859 kb/s
    Stream #0:0: Video: mpeg4 (Simple Profile), yuv420p, 640x480 [SAR 1:1 DAR 4:3], 23.98 fps, 23.98 tbr, 1k tbn, 23.98 tbc (default)
    Metadata:
      DURATION        : 00:24:28.009000000
    Stream #0:1: Audio: mp3, 48000 Hz, stereo, s16p, 104 kb/s (default)
    Metadata:
      DURATION        : 00:24:27.960000000
[libx264 @ 0x25d5640] using SAR=1/1
[libx264 @ 0x25d5640] using cpu capabilities: MMX2 SSE2Fast SSSE3 SSE4.2 AVX FMA3 AVX2 LZCNT BMI2
[libx264 @ 0x25d5640] profile High, level 3.1
[libx264 @ 0x25d5640] 264 - core 148 r2643 5c65704 - H.264/MPEG-4 AVC codec - Copyleft 2003-2015 - http://www.videolan.org/x264.html - options: cabac=1 ref=8 deblock=1:1:1 analyse=0x3:0x133 me=umh subme=7 psy=1 psy_rd=0.00:0.00 mixed_ref=1 me_range=8 chroma_me=1 trellis=0 8x8dct=1 cqm=0 deadzone=21,11 fast_pskip=1 chroma_qp_offset=0 threads=8 lookahead_threads=2 sliced_threads=0 nr=0 decimate=1 interlaced=0 bluray_compat=0 constrained_intra=0 bframes=3 b_pyramid=2 b_adapt=2 b_bias=0 direct=1 weightb=1 open_gop=0 weightp=2 keyint=240 keyint_min=24 scenecut=40 intra_refresh=0 rc_lookahead=60 rc=crf mbtree=1 crf=27.0 qcomp=0.60 qpmin=0 qpmax=69 qpstep=4 ip_ratio=1.40 aq=1:1.00
[libfdk_aac @ 0x255e280] Note, the VBR setting is unsupported and only works with some parameter combinations
Output #0, mp4, to '/media/yubikiri/bot/queue/3AnimePahe_Detective_Conan_-_035_720p_Fansub.mkv_encoded.mp4':
  Metadata:
    encoder         : Lavf57.57.100
    Stream #0:0: Video: h264 (libx264) ([33][0][0][0] / 0x0021), yuv420p, 640x480 [SAR 1:1 DAR 4:3], q=-1--1, 23.98 fps, 24k tbn, 23.98 tbc (default)
    Metadata:
      encoder         : Lavc57.65.100 libx264
    Side data:
      cpb: bitrate max/min/avg: 0/0/0 buffer size: 0 vbv_delay: -1
    Stream #0:1: Audio: aac (libfdk_aac) (HE-AACv2) ([64][0][0][0] / 0x0040), 48000 Hz, stereo, s16, 48 kb/s (default)
    Metadata:
      encoder         : Lavc57.65.100 libfdk_aac
Stream mapping:
  Stream #0:0 -> #0:0 (mpeg4 (native) -> h264 (libx264))
  Stream #0:1 -> #0:1 (mp3 (native) -> aac (libfdk_aac))
Press [q] to stop, [?] for help
frame=  116 fps=0.0 q=32.0 size=     114kB time=00:00:05.01 bitrate= 185.7kbits/s dup=1 drop=0 speed=  10x    frame=  176 fps=175 q=32.0 size=     301kB time=00:00:07.53 bitrate= 326.9kbits/s dup=1 drop=0 speed= 7.5x    frame=  243 fps=161 q=32.0 size=     552kB time=00:00:10.30 bitrate= 438.9kbits/s dup=1 drop=0 speed=6.82x    frame=  307 fps=152 q=32.0 size=     732kB time=00:00:12.95 bitrate= 462.8kbits/s dup=1 drop=0 speed= 6.4x    frame=  383 fps=152 q=32.0 size=     859kB time=00:00:16.10 bitrate= 436.8kbits/s dup=1 drop=0 speed=6.38x    frame=  467 fps=154 q=32.0 size=    1004kB time=00:00:19.60 bitrate= 419.4kbits/s dup=1 drop=0 speed=6.48x    frame=  570 fps=162 q=32.0 size=    1149kB time=00:00:23.91 bitrate= 393.6kbits/s dup=1 drop=0 speed=6.78x    frame=  664 fps=164 q=32.0 size=    1332kB time=00:00:27.88 bitrate= 391.4kbits/s dup=1 drop=0 speed=6.91x    frame=  752 fps=165 q=32.0 size=    1538kB time=00:00:31.55 bitrate= 399.2kbits/s dup=1 drop=0 speed=6.91x    frame=  820 fps=162 q=32.0 size=    1726kB time=00:00:34.36 bitrate= 411.5kbits/s dup=1 drop=0 speed=6.78x    frame=  920 fps=165 q=32.0 size=    1885kB time=00:00:38.50 bitrate= 401.0kbits/s dup=1 drop=0 speed=6.89x    frame=  999 fps=164 q=32.0 size=    2037kB time=00:00:41.83 bitrate= 398.9kbits/s dup=1 drop=0 speed=6.87x    frame= 1079 fps=163 q=32.0 size=    2239kB time=00:00:45.16 bitrate= 406.1kbits/s dup=1 drop=0 speed=6.81x    frame= 1184 fps=166 q=32.0 size=    2385kB time=00:00:49.51 bitrate= 394.5kbits/s dup=1 drop=0 speed=6.94x    frame= 1267 fps=166 q=32.0 size=    2551kB time=00:00:52.97 bitrate= 394.6kbits/s dup=1 drop=0 speed=6.94x    frame= 1361 fps=167 q=32.0 size=    2714kB time=00:00:56.93 bitrate= 390.4kbits/s dup=1 drop=0 speed=6.99x    frame= 1451 fps=168 q=32.0 size=    2880kB time=00:01:00.65 bitrate= 389.0kbits/s dup=1 drop=0 speed=7.01x    frame= 1504 fps=162 q=32.0 size=    2946kB time=00:01:02.87 bitrate= 383.9kbits/s dup=1 drop=0 speed=6.75x    frame= 1631 fps=166 q=32.0 size=    3121kB time=00:01:08.16 bitrate= 375.0kbits/s dup=1 drop=0 speed=6.95x    frame= 1741 fps=169 q=32.0 size=    3241kB time=00:01:12.76 bitrate= 364.9kbits/s dup=1 drop=0 speed=7.05x    frame= 1811 fps=167 q=32.0 size=    3443kB time=00:01:15.71 bitrate= 372.5kbits/s dup=1 drop=0 speed=   7x    frame= 1891 fps=167 q=32.0 size=    3601kB time=00:01:19.04 bitrate= 373.2kbits/s dup=1 drop=0 speed=6.98x    frame= 1981 fps=167 q=32.0 size=    3745kB time=00:01:22.79 bitrate= 370.5kbits/s dup=1 drop=0 speed=   7x    frame= 2079 fps=169 q=32.0 size=    3875kB time=00:01:26.89 bitrate= 365.3kbits/s dup=1 drop=0 speed=7.05x    frame= 2162 fps=169 q=32.0 size=    4012kB time=00:01:30.34 bitrate= 363.8kbits/s dup=1 drop=0 speed=7.04x    frame= 2279 fps=170 q=32.0 size=    4175kB time=00:01:35.21 bitrate= 359.2kbits/s dup=1 drop=0 speed=7.12x    frame= 2386 fps=172 q=32.0 size=    4341kB time=00:01:39.64 bitrate= 356.8kbits/s dup=1 drop=0 speed=7.18x    frame= 2502 fps=174 q=32.0 size=    4494kB time=00:01:44.51 bitrate= 352.2kbits/s dup=1 drop=0 speed=7.26x    frame= 2604 fps=175 q=32.0 size=    4636kB time=00:01:48.77 bitrate= 349.2kbits/s dup=1 drop=0 speed= 7.3x    frame= 2711 fps=176 q=32.0 size=    4788kB time=00:01:53.21 bitrate= 346.4kbits/s dup=1 drop=0 speed=7.35x    frame= 2829 fps=178 q=32.0 size=    4914kB time=00:01:58.16 bitrate= 340.7kbits/s dup=1 drop=0 speed=7.43x    frame= 2897 fps=176 q=32.0 size=    5040kB time=00:02:00.98 bitrate= 341.3kbits/s dup=1 drop=0 speed=7.37x    frame= 2960 fps=175 q=32.0 size=    5169kB time=00:02:03.58 bitrate= 342.6kbits/s dup=1 drop=0 speed= 7.3x    frame= 3021 fps=173 q=32.0 size=    5315kB time=00:02:06.14 bitrate= 345.2kbits/s dup=1 drop=0 speed=7.24x    frame= 3085 fps=172 q=32.0 size=    5465kB time=00:02:08.83 bitrate= 347.5kbits/s dup=1 drop=0 speed=7.18x    frame= 3161 fps=171 q=32.0 size=    5582kB time=00:02:11.99 bitrate= 346.5kbits/s dup=1 drop=0 speed=7.15x    frame= 3225 fps=170 q=32.0 size=    5724kB time=00:02:14.67 bitrate= 348.2kbits/s dup=1 drop=0 speed=7.11x    frame= 3292 fps=169 q=32.0 size=    5831kB time=00:02:17.45 bitrate= 347.5kbits/s dup=1 drop=0 speed=7.06x    frame= 3351 fps=168 q=32.0 size=    6008kB time=00:02:19.92 bitrate= 351.8kbits/s dup=1 drop=0 speed=   7x    frame= 3412 fps=167 q=32.0 size=    6131kB time=00:02:22.44 bitrate= 352.6kbits/s dup=1 drop=0 speed=6.95x    frame= 3454 fps=164 q=32.0 size=    6233kB time=00:02:24.23 bitrate= 354.0kbits/s dup=1 drop=0 speed=6.86x    frame= 3510 fps=163 q=32.0 size=    6314kB time=00:02:26.53 bitrate= 353.0kbits/s dup=1 drop=0 speed=6.81x    frame= 3565 fps=162 q=32.0 size=    6382kB time=00:02:28.84 bitrate= 351.3kbits/s dup=1 drop=0 speed=6.75x    frame= 3625 fps=161 q=32.0 size=    6448kB time=00:02:31.36 bitrate= 349.0kbits/s dup=1 drop=0 speed=6.71x    frame= 3721 fps=161 q=32.0 size=    6578kB time=00:02:35.37 bitrate= 346.8kbits/s dup=1 drop=0 speed=6.74x    frame= 3839 fps=163 q=32.0 size=    6674kB time=00:02:40.27 bitrate= 341.1kbits/s dup=1 drop=0 speed=6.81x    frame= 3937 fps=164 q=32.0 size=    6760kB time=00:02:44.37 bitrate= 336.9kbits/s dup=1 drop=0 speed=6.84x    frame= 3999 fps=163 q=32.0 size=    6876kB time=00:02:46.93 bitrate= 337.4kbits/s dup=1 drop=0 speed= 6.8x    frame= 4064 fps=162 q=32.0 size=    6965kB time=00:02:49.66 bitrate= 336.3kbits/s dup=1 drop=0 speed=6.77x    frame= 4133 fps=162 q=32.0 size=    7090kB time=00:02:52.52 bitrate= 336.7kbits/s dup=1 drop=0 speed=6.75x    frame= 4208 fps=161 q=32.0 size=    7174kB time=00:02:55.68 bitrate= 334.5kbits/s dup=1 drop=0 speed=6.74x    frame= 4265 fps=160 q=32.0 size=    7253kB time=00:02:58.07 bitrate= 333.7kbits/s dup=1 drop=0 speed= 6.7x    frame= 4303 fps=159 q=32.0 size=    7323kB time=00:02:59.64 bitrate= 333.9kbits/s dup=1 drop=0 speed=6.63x    frame= 4343 fps=157 q=32.0 size=    7406kB time=00:03:01.31 bitrate= 334.6kbits/s dup=1 drop=0 speed=6.56x    frame= 4383 fps=156 q=32.0 size=    7501kB time=00:03:02.97 bitrate= 335.8kbits/s dup=1 drop=0 speed= 6.5x    frame= 4426 fps=154 q=32.0 size=    7592kB time=00:03:04.76 bitrate= 336.6kbits/s dup=1 drop=0 speed=6.44x    frame= 4463 fps=153 q=32.0 size=    7660kB time=00:03:06.30 bitrate= 336.8kbits/s dup=1 drop=0 speed=6.38x    frame= 4502 fps=152 q=32.0 size=    7719kB time=00:03:07.92 bitrate= 336.5kbits/s dup=1 drop=0 speed=6.33x    frame= 4550 fps=151 q=32.0 size=    7795kB time=00:03:09.93 bitrate= 336.2kbits/s dup=1 drop=0 speed=6.29x    frame= 4583 fps=149 q=32.0 size=    7871kB time=00:03:11.29 bitrate= 337.1kbits/s dup=1 drop=0 speed=6.23x    frame= 4626 fps=148 q=32.0 size=    7959kB time=00:03:13.08 bitrate= 337.7kbits/s dup=1 drop=0 speed=6.19x    frame= 4696 fps=148 q=32.0 size=    8022kB time=00:03:16.03 bitrate= 335.2kbits/s dup=1 drop=0 speed=6.18x    frame= 4765 fps=148 q=32.0 size=    8120kB time=00:03:18.89 bitrate= 334.4kbits/s dup=1 drop=0 speed=6.17x    frame= 4856 fps=148 q=32.0 size=    8204kB time=00:03:22.68 bitrate= 331.6kbits/s dup=1 drop=0 speed=6.19x    frame= 4921 fps=148 q=32.0 size=    8316kB time=00:03:25.41 bitrate= 331.6kbits/s dup=1 drop=0 speed=6.18x    frame= 4974 fps=147 q=32.0 size=    8409kB time=00:03:27.63 bitrate= 331.8kbits/s dup=1 drop=0 speed=6.15x    frame= 5042 fps=147 q=32.0 size=    8473kB time=00:03:30.45 bitrate= 329.8kbits/s dup=1 drop=0 speed=6.12x    frame= 5114 fps=147 q=32.0 size=    8552kB time=00:03:33.44 bitrate= 328.2kbits/s dup=1 drop=0 speed=6.11x    frame= 5173 fps=146 q=32.0 size=    8639kB time=00:03:35.91 bitrate= 327.8kbits/s dup=1 drop=0 speed= 6.1x    frame= 5247 fps=146 q=32.0 size=    8736kB time=00:03:38.98 bitrate= 326.8kbits/s dup=1 drop=0 speed=6.09x    frame= 5332 fps=146 q=32.0 size=    8842kB time=00:03:42.57 bitrate= 325.4kbits/s dup=1 drop=0 speed=6.11x    frame= 5403 fps=146 q=32.0 size=    8935kB time=00:03:45.51 bitrate= 324.6kbits/s dup=1 drop=0 speed= 6.1x    frame= 5505 fps=147 q=32.0 size=    9030kB time=00:03:49.73 bitrate= 322.0kbits/s dup=1 drop=0 speed=6.13x    frame= 5574 fps=147 q=32.0 size=    9109kB time=00:03:52.64 bitrate= 320.7kbits/s dup=1 drop=0 speed=6.13x    frame= 5673 fps=148 q=32.0 size=    9204kB time=00:03:56.73 bitrate= 318.5kbits/s dup=1 drop=0 speed=6.16x    frame= 5752 fps=148 q=32.0 size=    9295kB time=00:04:00.06 bitrate= 317.2kbits/s dup=1 drop=0 speed=6.16x    frame= 5824 fps=148 q=32.0 size=    9372kB time=00:04:03.05 bitrate= 315.9kbits/s dup=1 drop=0 speed=6.16x    frame= 5902 fps=148 q=32.0 size=    9465kB time=00:04:06.29 bitrate= 314.8kbits/s dup=1 drop=0 speed=6.16x    frame= 5968 fps=147 q=32.0 size=    9552kB time=00:04:09.06 bitrate= 314.2kbits/s dup=1 drop=0 speed=6.15x    frame= 6021 fps=147 q=32.0 size=    9635kB time=00:04:11.28 bitrate= 314.1kbits/s dup=1 drop=0 speed=6.13x    frame= 6091 fps=147 q=32.0 size=    9730kB time=00:04:14.18 bitrate= 313.6kbits/s dup=1 drop=0 speed=6.13x    frame= 6138 fps=146 q=32.0 size=    9815kB time=00:04:16.19 bitrate= 313.8kbits/s dup=1 drop=0 speed= 6.1x    frame= 6198 fps=146 q=32.0 size=    9902kB time=00:04:18.66 bitrate= 313.6kbits/s dup=1 drop=0 speed=6.09x    frame= 6300 fps=146 q=32.0 size=    9988kB time=00:04:22.93 bitrate= 311.2kbits/s dup=1 drop=0 speed=6.11x    frame= 6398 fps=147 q=32.0 size=   10096kB time=00:04:26.98 bitrate= 309.8kbits/s dup=1 drop=0 speed=6.14x    frame= 6501 fps=148 q=32.0 size=   10172kB time=00:04:31.29 bitrate= 307.1kbits/s dup=1 drop=0 speed=6.16x    frame= 6608 fps=148 q=32.0 size=   10293kB time=00:04:35.77 bitrate= 305.8kbits/s dup=1 drop=0 speed=6.19x    frame= 6706 fps=149 q=32.0 size=   10382kB time=00:04:39.87 bitrate= 303.9kbits/s dup=1 drop=0 speed=6.21x    frame= 6784 fps=149 q=32.0 size=   10495kB time=00:04:43.11 bitrate= 303.7kbits/s dup=1 drop=0 speed=6.21x    frame= 6861 fps=149 q=32.0 size=   10576kB time=00:04:46.31 bitrate= 302.6kbits/s dup=1 drop=0 speed=6.21x    frame= 6928 fps=148 q=32.0 size=   10686kB time=00:04:49.08 bitrate= 302.8kbits/s dup=1 drop=0 speed=6.19x    frame= 6991 fps=148 q=32.0 size=   10809kB time=00:04:51.73 bitrate= 303.5kbits/s dup=1 drop=0 speed=6.18x    frame= 7071 fps=148 q=32.0 size=   10918kB time=00:04:55.06 bitrate= 303.1kbits/s dup=1 drop=0 speed=6.19x    frame= 7138 fps=148 q=32.0 size=   11014kB time=00:04:57.87 bitrate= 302.9kbits/s dup=1 drop=0 speed=6.18x    frame= 7208 fps=148 q=32.0 size=   11095kB time=00:05:00.77 bitrate= 302.2kbits/s dup=1 drop=0 speed=6.18x    frame= 7302 fps=148 q=32.0 size=   11191kB time=00:05:04.70 bitrate= 300.9kbits/s dup=1 drop=0 speed=6.19x    frame= 7357 fps=148 q=32.0 size=   11287kB time=00:05:07.00 bitrate= 301.2kbits/s dup=1 drop=0 speed=6.18x    frame= 7441 fps=148 q=32.0 size=   11390kB time=00:05:10.50 bitrate= 300.5kbits/s dup=1 drop=0 speed=6.19x    frame= 7534 fps=149 q=32.0 size=   11493kB time=00:05:14.39 bitrate= 299.5kbits/s dup=1 drop=0 speed= 6.2x    frame= 7637 fps=149 q=32.0 size=   11561kB time=00:05:18.69 bitrate= 297.2kbits/s dup=1 drop=0 speed=6.22x    frame= 7703 fps=149 q=32.0 size=   11658kB time=00:05:21.43 bitrate= 297.1kbits/s dup=1 drop=0 speed=6.22x    frame= 7772 fps=149 q=32.0 size=   11731kB time=00:05:24.33 bitrate= 296.3kbits/s dup=1 drop=0 speed=6.21x    frame= 7836 fps=149 q=32.0 size=   11838kB time=00:05:26.97 bitrate= 296.6kbits/s dup=1 drop=0 speed= 6.2x    frame= 7911 fps=149 q=32.0 size=   11952kB time=00:05:30.13 bitrate= 296.6kbits/s dup=1 drop=0 speed= 6.2x    frame= 7980 fps=148 q=32.0 size=   12078kB time=00:05:32.99 bitrate= 297.1kbits/s dup=1 drop=0 speed= 6.2x    frame= 8028 fps=148 q=32.0 size=   12155kB time=00:05:34.99 bitrate= 297.2kbits/s dup=1 drop=0 speed=6.18x    frame= 8099 fps=148 q=32.0 size=   12264kB time=00:05:37.94 bitrate= 297.3kbits/s dup=1 drop=0 speed=6.17x    frame= 8187 fps=148 q=32.0 size=   12363kB time=00:05:41.61 bitrate= 296.5kbits/s dup=1 drop=0 speed=6.18x    frame= 8254 fps=148 q=32.0 size=   12458kB time=00:05:44.42 bitrate= 296.3kbits/s dup=1 drop=0 speed=6.18x    frame= 8336 fps=148 q=32.0 size=   12580kB time=00:05:47.84 bitrate= 296.3kbits/s dup=1 drop=0 speed=6.18x    frame= 8445 fps=149 q=32.0 size=   12684kB time=00:05:52.40 bitrate= 294.9kbits/s dup=1 drop=0 speed=6.21x    frame= 8503 fps=149 q=32.0 size=   12810kB time=00:05:54.79 bitrate= 295.8kbits/s dup=1 drop=0 speed= 6.2x    frame= 8585 fps=149 q=32.0 size=   12932kB time=00:05:58.20 bitrate= 295.7kbits/s dup=1 drop=0 speed= 6.2x    frame= 8667 fps=149 q=32.0 size=   13037kB time=00:06:01.66 bitrate= 295.3kbits/s dup=1 drop=0 speed=6.21x    frame= 8730 fps=149 q=32.0 size=   13142kB time=00:06:04.26 bitrate= 295.5kbits/s dup=1 drop=0 speed= 6.2x    frame= 8791 fps=148 q=32.0 size=   13239kB time=00:06:06.82 bitrate= 295.7kbits/s dup=1 drop=0 speed=6.19x    frame= 8852 fps=148 q=32.0 size=   13351kB time=00:06:09.34 bitrate= 296.1kbits/s dup=1 drop=0 speed=6.18x    frame= 8916 fps=148 q=32.0 size=   13438kB time=00:06:12.03 bitrate= 295.9kbits/s dup=1 drop=0 speed=6.17x    frame= 8974 fps=148 q=32.0 size=   13523kB time=00:06:14.42 bitrate= 295.9kbits/s dup=1 drop=0 speed=6.16x    frame= 9028 fps=147 q=32.0 size=   13615kB time=00:06:16.68 bitrate= 296.1kbits/s dup=1 drop=0 speed=6.14x    frame= 9099 fps=147 q=32.0 size=   13730kB time=00:06:19.67 bitrate= 296.2kbits/s dup=1 drop=0 speed=6.14x    frame= 9212 fps=148 q=32.0 size=   13799kB time=00:06:24.36 bitrate= 294.1kbits/s dup=1 drop=0 speed=6.17x    frame= 9288 fps=148 q=32.0 size=   13906kB time=00:06:27.56 bitrate= 293.9kbits/s dup=1 drop=0 speed=6.17x    frame= 9379 fps=148 q=32.0 size=   14012kB time=00:06:31.36 bitrate= 293.3kbits/s dup=1 drop=0 speed=6.18x    frame= 9493 fps=149 q=32.0 size=   14136kB time=00:06:36.13 bitrate= 292.3kbits/s dup=1 drop=0 speed=6.21x    frame= 9598 fps=149 q=32.0 size=   14256kB time=00:06:40.49 bitrate= 291.6kbits/s dup=1 drop=0 speed=6.23x    frame= 9701 fps=150 q=32.0 size=   14340kB time=00:06:44.80 bitrate= 290.2kbits/s dup=1 drop=0 speed=6.24x    frame= 9767 fps=149 q=29.0 size=   14462kB time=00:06:47.53 bitrate= 290.7kbits/s dup=1 drop=0 speed=6.24x    frame= 9871 fps=150 q=32.0 size=   14579kB time=00:06:51.88 bitrate= 290.0kbits/s dup=1 drop=0 speed=6.25x    frame= 9987 fps=150 q=32.0 size=   14695kB time=00:06:56.70 bitrate= 288.9kbits/s dup=1 drop=0 speed=6.28x    frame=10103 fps=151 q=32.0 size=   14813kB time=00:07:01.52 bitrate= 287.9kbits/s dup=1 drop=0 speed= 6.3x    frame=10210 fps=152 q=32.0 size=   14907kB time=00:07:06.00 bitrate= 286.7kbits/s dup=1 drop=0 speed=6.32x    frame=10271 fps=151 q=32.0 size=   15019kB time=00:07:08.52 bitrate= 287.1kbits/s dup=1 drop=0 speed=6.31x    frame=10328 fps=151 q=32.0 size=   15121kB time=00:07:10.91 bitrate= 287.5kbits/s dup=1 drop=0 speed= 6.3x    frame=10422 fps=151 q=32.0 size=   15226kB time=00:07:14.83 bitrate= 286.8kbits/s dup=1 drop=0 speed=6.31x    frame=10482 fps=151 q=32.0 size=   15312kB time=00:07:17.35 bitrate= 286.8kbits/s dup=1 drop=0 speed= 6.3x    frame=10542 fps=151 q=32.0 size=   15407kB time=00:07:19.83 bitrate= 287.0kbits/s dup=1 drop=0 speed=6.29x    frame=10609 fps=151 q=32.0 size=   15533kB time=00:07:22.64 bitrate= 287.5kbits/s dup=1 drop=0 speed=6.28x    frame=10678 fps=150 q=32.0 size=   15633kB time=00:07:25.50 bitrate= 287.5kbits/s dup=1 drop=0 speed=6.28x    frame=10754 fps=150 q=32.0 size=   15722kB time=00:07:28.66 bitrate= 287.1kbits/s dup=1 drop=0 speed=6.28x    frame=10831 fps=151 q=32.0 size=   15823kB time=00:07:31.90 bitrate= 286.8kbits/s dup=1 drop=0 speed=6.28x    frame=10882 fps=150 q=32.0 size=   15936kB time=00:07:34.03 bitrate= 287.5kbits/s dup=1 drop=0 speed=6.27x    frame=10946 fps=150 q=32.0 size=   16052kB time=00:07:36.68 bitrate= 287.9kbits/s dup=1 drop=0 speed=6.26x    frame=11048 fps=150 q=32.0 size=   16148kB time=00:07:40.95 bitrate= 287.0kbits/s dup=1 drop=0 speed=6.27x    frame=11125 fps=150 q=32.0 size=   16217kB time=00:07:44.15 bitrate= 286.2kbits/s dup=1 drop=0 speed=6.27x    frame=11174 fps=150 q=32.0 size=   16314kB time=00:07:46.24 bitrate= 286.6kbits/s dup=1 drop=0 speed=6.26x    frame=11245 fps=150 q=32.0 size=   16413kB time=00:07:49.18 bitrate= 286.6kbits/s dup=1 drop=0 speed=6.26x    frame=11302 fps=150 q=32.0 size=   16489kB time=00:07:51.53 bitrate= 286.5kbits/s dup=1 drop=0 speed=6.25x    frame=11380 fps=150 q=32.0 size=   16585kB time=00:07:54.77 bitrate= 286.2kbits/s dup=1 drop=0 speed=6.25x    frame=11496 fps=150 q=32.0 size=   16720kB time=00:07:59.63 bitrate= 285.6kbits/s dup=1 drop=0 speed=6.27x    frame=11583 fps=150 q=32.0 size=   16826kB time=00:08:03.26 bitrate= 285.2kbits/s dup=1 drop=0 speed=6.28x    frame=11666 fps=151 q=32.0 size=   16919kB time=00:08:06.72 bitrate= 284.8kbits/s dup=1 drop=0 speed=6.28x    frame=11716 fps=150 q=32.0 size=   17044kB time=00:08:08.81 bitrate= 285.6kbits/s dup=1 drop=0 speed=6.26x    frame=11797 fps=150 q=32.0 size=   17175kB time=00:08:12.18 bitrate= 285.9kbits/s dup=1 drop=0 speed=6.27x    frame=11861 fps=150 q=29.0 size=   17297kB time=00:08:14.87 bitrate= 286.3kbits/s dup=1 drop=0 speed=6.26x    frame=12003 fps=151 q=32.0 size=   17436kB time=00:08:20.80 bitrate= 285.2kbits/s dup=1 drop=0 speed=6.29x    frame=12137 fps=152 q=32.0 size=   17532kB time=00:08:26.39 bitrate= 283.6kbits/s dup=1 drop=0 speed=6.32x    frame=12257 fps=152 q=32.0 size=   17662kB time=00:08:31.38 bitrate= 282.9kbits/s dup=1 drop=0 speed=6.34x    frame=12368 fps=152 q=32.0 size=   17786kB time=00:08:35.99 bitrate= 282.4kbits/s dup=1 drop=0 speed=6.36x    frame=12463 fps=153 q=32.0 size=   17908kB time=00:08:39.95 bitrate= 282.1kbits/s dup=1 drop=0 speed=6.37x    frame=12536 fps=153 q=32.0 size=   18002kB time=00:08:42.98 bitrate= 282.0kbits/s dup=1 drop=0 speed=6.37x    frame=12593 fps=152 q=32.0 size=   18132kB time=00:08:45.37 bitrate= 282.7kbits/s dup=1 drop=0 speed=6.36x    frame=12626 fps=152 q=32.0 size=   18278kB time=00:08:46.78 bitrate= 284.2kbits/s dup=1 drop=0 speed=6.34x    frame=12720 fps=152 q=32.0 size=   18416kB time=00:08:50.66 bitrate= 284.3kbits/s dup=1 drop=0 speed=6.35x    frame=12809 fps=152 q=32.0 size=   18527kB time=00:08:54.42 bitrate= 284.0kbits/s dup=1 drop=0 speed=6.35x    frame=12879 fps=152 q=32.0 size=   18612kB time=00:08:57.32 bitrate= 283.8kbits/s dup=1 drop=0 speed=6.35x    frame=12992 fps=152 q=32.0 size=   18729kB time=00:09:02.05 bitrate= 283.0kbits/s dup=1 drop=0 speed=6.36x    frame=13085 fps=153 q=32.0 size=   18833kB time=00:09:05.89 bitrate= 282.6kbits/s dup=1 drop=0 speed=6.37x    frame=13171 fps=153 q=32.0 size=   18912kB time=00:09:09.48 bitrate= 282.0kbits/s dup=1 drop=0 speed=6.37x    frame=13243 fps=153 q=32.0 size=   19033kB time=00:09:12.51 bitrate= 282.2kbits/s dup=1 drop=0 speed=6.37x    frame=13320 fps=153 q=32.0 size=   19131kB time=00:09:15.71 bitrate= 282.0kbits/s dup=1 drop=0 speed=6.37x    frame=13397 fps=153 q=32.0 size=   19250kB time=00:09:18.91 bitrate= 282.1kbits/s dup=1 drop=0 speed=6.37x    frame=13497 fps=153 q=32.0 size=   19382kB time=00:09:23.09 bitrate= 282.0kbits/s dup=1 drop=0 speed=6.38x    frame=13563 fps=153 q=32.0 size=   19500kB time=00:09:25.86 bitrate= 282.3kbits/s dup=1 drop=0 speed=6.38x    frame=13609 fps=153 q=32.0 size=   19615kB time=00:09:27.78 bitrate= 283.0kbits/s dup=1 drop=0 speed=6.36x    frame=13692 fps=153 q=32.0 size=   19731kB time=00:09:31.20 bitrate= 283.0kbits/s dup=1 drop=0 speed=6.37x    frame=13789 fps=153 q=32.0 size=   19823kB time=00:09:35.25 bitrate= 282.3kbits/s dup=1 drop=0 speed=6.37x    frame=13871 fps=153 q=32.0 size=   19931kB time=00:09:38.66 bitrate= 282.2kbits/s dup=1 drop=0 speed=6.38x    frame=13951 fps=153 q=32.0 size=   20030kB time=00:09:42.03 bitrate= 281.9kbits/s dup=1 drop=0 speed=6.38x    frame=14027 fps=153 q=32.0 size=   20125kB time=00:09:45.19 bitrate= 281.7kbits/s dup=1 drop=0 speed=6.38x    frame=14068 fps=152 q=32.0 size=   20224kB time=00:09:46.90 bitrate= 282.3kbits/s dup=1 drop=0 speed=6.36x    frame=14109 fps=152 q=32.0 size=   20379kB time=00:09:48.60 bitrate= 283.6kbits/s dup=1 drop=0 speed=6.34x    frame=14165 fps=152 q=32.0 size=   20498kB time=00:09:50.95 bitrate= 284.2kbits/s dup=1 drop=0 speed=6.34x    frame=14267 fps=152 q=32.0 size=   20607kB time=00:09:55.22 bitrate= 283.6kbits/s dup=1 drop=0 speed=6.35x    frame=14381 fps=152 q=32.0 size=   20705kB time=00:09:59.95 bitrate= 282.7kbits/s dup=1 drop=0 speed=6.36x    frame=14494 fps=153 q=32.0 size=   20810kB time=00:10:04.69 bitrate= 281.9kbits/s dup=1 drop=0 speed=6.38x    frame=14577 fps=153 q=32.0 size=   20925kB time=00:10:08.15 bitrate= 281.9kbits/s dup=1 drop=0 speed=6.38x    frame=14683 fps=153 q=32.0 size=   21033kB time=00:10:12.54 bitrate= 281.3kbits/s dup=1 drop=0 speed=6.39x    frame=14828 fps=154 q=32.0 size=   21148kB time=00:10:18.60 bitrate= 280.1kbits/s dup=1 drop=0 speed=6.41x    frame=14893 fps=154 q=32.0 size=   21255kB time=00:10:21.29 bitrate= 280.3kbits/s dup=1 drop=0 speed=6.41x    frame=14984 fps=154 q=32.0 size=   21346kB time=00:10:25.13 bitrate= 279.7kbits/s dup=1 drop=0 speed=6.42x    frame=15108 fps=154 q=32.0 size=   21449kB time=00:10:30.29 bitrate= 278.8kbits/s dup=1 drop=0 speed=6.44x    frame=15194 fps=154 q=32.0 size=   21598kB time=00:10:33.87 bitrate= 279.1kbits/s dup=1 drop=0 speed=6.44x    frame=15308 fps=155 q=32.0 size=   21721kB time=00:10:38.65 bitrate= 278.6kbits/s dup=1 drop=0 speed=6.45x    frame=15418 fps=155 q=32.0 size=   21843kB time=00:10:43.22 bitrate= 278.2kbits/s dup=1 drop=0 speed=6.46x    frame=15525 fps=155 q=32.0 size=   21939kB time=00:10:47.70 bitrate= 277.5kbits/s dup=1 drop=0 speed=6.47x    frame=15602 fps=155 q=32.0 size=   22089kB time=00:10:50.90 bitrate= 278.0kbits/s dup=1 drop=0 speed=6.47x    frame=15718 fps=155 q=32.0 size=   22171kB time=00:10:55.72 bitrate= 277.0kbits/s dup=1 drop=0 speed=6.49x    frame=15788 fps=155 q=32.0 size=   22278kB time=00:10:58.66 bitrate= 277.1kbits/s dup=1 drop=0 speed=6.48x    frame=15835 fps=155 q=32.0 size=   22372kB time=00:11:00.58 bitrate= 277.4kbits/s dup=1 drop=0 speed=6.47x    frame=15901 fps=155 q=32.0 size=   22475kB time=00:11:03.36 bitrate= 277.5kbits/s dup=1 drop=0 speed=6.47x    frame=15978 fps=155 q=32.0 size=   22574kB time=00:11:06.56 bitrate= 277.4kbits/s dup=1 drop=0 speed=6.46x    frame=16057 fps=155 q=32.0 size=   22701kB time=00:11:09.84 bitrate= 277.6kbits/s dup=1 drop=0 speed=6.46x    frame=16143 fps=155 q=32.0 size=   22813kB time=00:11:13.47 bitrate= 277.5kbits/s dup=1 drop=0 speed=6.47x    frame=16213 fps=155 q=32.0 size=   22892kB time=00:11:16.37 bitrate= 277.3kbits/s dup=1 drop=0 speed=6.46x    frame=16263 fps=155 q=32.0 size=   22987kB time=00:11:18.42 bitrate= 277.6kbits/s dup=1 drop=0 speed=6.45x    frame=16343 fps=155 q=32.0 size=   23100kB time=00:11:21.79 bitrate= 277.6kbits/s dup=1 drop=0 speed=6.45x    frame=16416 fps=155 q=32.0 size=   23204kB time=00:11:24.82 bitrate= 277.6kbits/s dup=1 drop=0 speed=6.45x    frame=16464 fps=154 q=32.0 size=   23287kB time=00:11:26.87 bitrate= 277.7kbits/s dup=1 drop=0 speed=6.44x    frame=16550 fps=154 q=32.0 size=   23393kB time=00:11:30.41 bitrate= 277.6kbits/s dup=1 drop=0 speed=6.44x    frame=16622 fps=154 q=32.0 size=   23500kB time=00:11:33.44 bitrate= 277.6kbits/s dup=1 drop=0 speed=6.44x    frame=16729 fps=155 q=32.0 size=   23601kB time=00:11:37.87 bitrate= 277.0kbits/s dup=1 drop=0 speed=6.45x    frame=16783 fps=154 q=32.0 size=   23699kB time=00:11:40.13 bitrate= 277.3kbits/s dup=1 drop=0 speed=6.44x    frame=16852 fps=154 q=32.0 size=   23779kB time=00:11:42.99 bitrate= 277.1kbits/s dup=1 drop=0 speed=6.44x    frame=16938 fps=154 q=32.0 size=   23890kB time=00:11:46.62 bitrate= 277.0kbits/s dup=1 drop=0 speed=6.44x    frame=17013 fps=154 q=32.0 size=   23972kB time=00:11:49.73 bitrate= 276.7kbits/s dup=1 drop=0 speed=6.44x    frame=17071 fps=154 q=32.0 size=   24059kB time=00:11:52.17 bitrate= 276.7kbits/s dup=1 drop=0 speed=6.43x    frame=17121 fps=154 q=32.0 size=   24150kB time=00:11:54.21 bitrate= 277.0kbits/s dup=1 drop=0 speed=6.42x    frame=17215 fps=154 q=32.0 size=   24255kB time=00:11:58.18 bitrate= 276.7kbits/s dup=1 drop=0 speed=6.43x    frame=17305 fps=154 q=32.0 size=   24348kB time=00:12:01.89 bitrate= 276.3kbits/s dup=1 drop=0 speed=6.43x    frame=17408 fps=154 q=32.0 size=   24473kB time=00:12:06.20 bitrate= 276.1kbits/s dup=1 drop=0 speed=6.44x    frame=17551 fps=155 q=32.0 size=   24583kB time=00:12:12.18 bitrate= 275.0kbits/s dup=1 drop=0 speed=6.47x    frame=17645 fps=155 q=32.0 size=   24667kB time=00:12:16.10 bitrate= 274.5kbits/s dup=1 drop=0 speed=6.47x    frame=17737 fps=155 q=32.0 size=   24780kB time=00:12:19.94 bitrate= 274.3kbits/s dup=1 drop=0 speed=6.48x    frame=17856 fps=156 q=32.0 size=   24891kB time=00:12:24.89 bitrate= 273.7kbits/s dup=1 drop=0 speed=6.49x    frame=18006 fps=156 q=32.0 size=   24988kB time=00:12:31.16 bitrate= 272.5kbits/s dup=1 drop=0 speed=6.52x    frame=18112 fps=156 q=32.0 size=   25088kB time=00:12:35.60 bitrate= 272.0kbits/s dup=1 drop=0 speed=6.53x    frame=18174 fps=156 q=32.0 size=   25169kB time=00:12:38.16 bitrate= 272.0kbits/s dup=1 drop=0 speed=6.52x    frame=18242 fps=156 q=32.0 size=   25271kB time=00:12:40.98 bitrate= 272.0kbits/s dup=1 drop=0 speed=6.52x    frame=18300 fps=156 q=32.0 size=   25368kB time=00:12:43.41 bitrate= 272.2kbits/s dup=1 drop=0 speed=6.51x    frame=18363 fps=156 q=32.0 size=   25475kB time=00:12:46.05 bitrate= 272.4kbits/s dup=1 drop=0 speed= 6.5x    frame=18415 fps=156 q=32.0 size=   25606kB time=00:12:48.23 bitrate= 273.1kbits/s dup=1 drop=0 speed=6.49x    frame=18505 fps=156 q=32.0 size=   25688kB time=00:12:51.99 bitrate= 272.6kbits/s dup=1 drop=0 speed= 6.5x    frame=18572 fps=156 q=32.0 size=   25777kB time=00:12:54.76 bitrate= 272.5kbits/s dup=1 drop=0 speed=6.49x    frame=18696 fps=156 q=32.0 size=   25880kB time=00:12:59.92 bitrate= 271.8kbits/s dup=1 drop=0 speed=6.51x    frame=18781 fps=156 q=32.0 size=   25985kB time=00:13:03.46 bitrate= 271.7kbits/s dup=1 drop=0 speed=6.51x    frame=18846 fps=156 q=32.0 size=   26076kB time=00:13:06.19 bitrate= 271.7kbits/s dup=1 drop=0 speed=6.51x    frame=18915 fps=156 q=32.0 size=   26173kB time=00:13:09.05 bitrate= 271.7kbits/s dup=1 drop=0 speed= 6.5x    frame=18999 fps=156 q=32.0 size=   26270kB time=00:13:12.55 bitrate= 271.5kbits/s dup=1 drop=0 speed= 6.5x    frame=19076 fps=156 q=32.0 size=   26401kB time=00:13:15.79 bitrate= 271.8kbits/s dup=1 drop=0 speed= 6.5x    frame=19202 fps=156 q=32.0 size=   26483kB time=00:13:21.04 bitrate= 270.8kbits/s dup=1 drop=0 speed=6.52x    frame=19266 fps=156 q=32.0 size=   26616kB time=00:13:23.69 bitrate= 271.3kbits/s dup=1 drop=0 speed=6.51x    frame=19341 fps=156 q=32.0 size=   26703kB time=00:13:26.84 bitrate= 271.1kbits/s dup=1 drop=0 speed=6.51x    frame=19440 fps=156 q=32.0 size=   26820kB time=00:13:30.94 bitrate= 270.9kbits/s dup=1 drop=0 speed=6.52x    frame=19580 fps=157 q=32.0 size=   26920kB time=00:13:36.83 bitrate= 270.0kbits/s dup=1 drop=0 speed=6.54x    frame=19700 fps=157 q=32.0 size=   27019kB time=00:13:41.82 bitrate= 269.3kbits/s dup=1 drop=0 speed=6.55x    frame=19817 fps=157 q=32.0 size=   27098kB time=00:13:46.68 bitrate= 268.5kbits/s dup=1 drop=0 speed=6.56x    frame=19889 fps=157 q=32.0 size=   27174kB time=00:13:49.71 bitrate= 268.3kbits/s dup=1 drop=0 speed=6.56x    frame=19967 fps=157 q=32.0 size=   27249kB time=00:13:52.91 bitrate= 268.0kbits/s dup=1 drop=0 speed=6.56x    frame=20054 fps=157 q=32.0 size=   27338kB time=00:13:56.58 bitrate= 267.7kbits/s dup=1 drop=0 speed=6.56x    frame=20155 fps=158 q=32.0 size=   27425kB time=00:14:00.81 bitrate= 267.2kbits/s dup=1 drop=0 speed=6.57x    frame=20265 fps=158 q=32.0 size=   27508kB time=00:14:05.37 bitrate= 266.6kbits/s dup=1 drop=0 speed=6.58x    frame=20389 fps=158 q=32.0 size=   27620kB time=00:14:10.53 bitrate= 266.0kbits/s dup=1 drop=0 speed= 6.6x    frame=20505 fps=158 q=32.0 size=   27706kB time=00:14:15.40 bitrate= 265.3kbits/s dup=1 drop=0 speed=6.61x    frame=20595 fps=158 q=29.0 size=   27810kB time=00:14:19.15 bitrate= 265.2kbits/s dup=1 drop=0 speed=6.61x    frame=20739 fps=159 q=32.0 size=   27914kB time=00:14:25.13 bitrate= 264.3kbits/s dup=1 drop=0 speed=6.63x    frame=20840 fps=159 q=32.0 size=   28042kB time=00:14:29.35 bitrate= 264.2kbits/s dup=1 drop=0 speed=6.64x    frame=20987 fps=160 q=32.0 size=   28157kB time=00:14:35.49 bitrate= 263.5kbits/s dup=1 drop=0 speed=6.66x    frame=21105 fps=160 q=32.0 size=   28252kB time=00:14:40.40 bitrate= 262.9kbits/s dup=1 drop=0 speed=6.67x    frame=21189 fps=160 q=32.0 size=   28333kB time=00:14:43.90 bitrate= 262.6kbits/s dup=1 drop=0 speed=6.67x    frame=21293 fps=160 q=32.0 size=   28429kB time=00:14:48.25 bitrate= 262.2kbits/s dup=1 drop=0 speed=6.68x    frame=21406 fps=160 q=32.0 size=   28511kB time=00:14:52.99 bitrate= 261.5kbits/s dup=1 drop=0 speed=6.69x    frame=21471 fps=160 q=32.0 size=   28606kB time=00:14:55.68 bitrate= 261.6kbits/s dup=1 drop=0 speed=6.68x    frame=21592 fps=161 q=32.0 size=   28701kB time=00:15:00.71 bitrate= 261.0kbits/s dup=1 drop=0 speed= 6.7x    frame=21723 fps=161 q=32.0 size=   28810kB time=00:15:06.21 bitrate= 260.4kbits/s dup=1 drop=0 speed=6.71x    frame=21825 fps=161 q=32.0 size=   28898kB time=00:15:10.44 bitrate= 260.0kbits/s dup=1 drop=0 speed=6.72x    frame=21927 fps=161 q=32.0 size=   28982kB time=00:15:14.66 bitrate= 259.6kbits/s dup=1 drop=0 speed=6.72x    frame=21975 fps=161 q=32.0 size=   29064kB time=00:15:16.71 bitrate= 259.7kbits/s dup=1 drop=0 speed=6.71x    frame=22049 fps=161 q=32.0 size=   29157kB time=00:15:19.78 bitrate= 259.7kbits/s dup=1 drop=0 speed=6.71x    frame=22190 fps=161 q=32.0 size=   29240kB time=00:15:25.63 bitrate= 258.8kbits/s dup=1 drop=0 speed=6.73x    frame=22303 fps=162 q=32.0 size=   29332kB time=00:15:30.36 bitrate= 258.3kbits/s dup=1 drop=0 speed=6.74x    frame=22397 fps=162 q=32.0 size=   29411kB time=00:15:34.33 bitrate= 257.9kbits/s dup=1 drop=0 speed=6.74x    frame=22489 fps=162 q=32.0 size=   29504kB time=00:15:38.13 bitrate= 257.6kbits/s dup=1 drop=0 speed=6.75x    frame=22558 fps=162 q=32.0 size=   29585kB time=00:15:41.03 bitrate= 257.5kbits/s dup=1 drop=0 speed=6.74x    frame=22626 fps=162 q=32.0 size=   29687kB time=00:15:43.85 bitrate= 257.7kbits/s dup=1 drop=0 speed=6.74x    frame=22689 fps=161 q=32.0 size=   29773kB time=00:15:46.49 bitrate= 257.7kbits/s dup=1 drop=0 speed=6.73x    frame=22755 fps=161 q=32.0 size=   29865kB time=00:15:49.22 bitrate= 257.7kbits/s dup=1 drop=0 speed=6.73x    frame=22851 fps=161 q=32.0 size=   29973kB time=00:15:53.23 bitrate= 257.6kbits/s dup=1 drop=0 speed=6.73x    frame=22921 fps=161 q=32.0 size=   30053kB time=00:15:56.13 bitrate= 257.5kbits/s dup=1 drop=0 speed=6.73x    frame=22998 fps=161 q=32.0 size=   30156kB time=00:15:59.38 bitrate= 257.5kbits/s dup=1 drop=0 speed=6.73x    frame=23084 fps=161 q=32.0 size=   30262kB time=00:16:02.96 bitrate= 257.4kbits/s dup=1 drop=0 speed=6.73x    frame=23142 fps=161 q=32.0 size=   30354kB time=00:16:05.35 bitrate= 257.6kbits/s dup=1 drop=0 speed=6.72x    frame=23248 fps=161 q=32.0 size=   30454kB time=00:16:09.79 bitrate= 257.2kbits/s dup=1 drop=0 speed=6.73x    frame=23364 fps=162 q=32.0 size=   30581kB time=00:16:14.65 bitrate= 257.0kbits/s dup=1 drop=0 speed=6.74x    frame=23437 fps=162 q=32.0 size=   30674kB time=00:16:17.68 bitrate= 257.0kbits/s dup=1 drop=0 speed=6.74x    frame=23509 fps=161 q=32.0 size=   30801kB time=00:16:20.67 bitrate= 257.3kbits/s dup=1 drop=0 speed=6.73x    frame=23564 fps=161 q=32.0 size=   30900kB time=00:16:22.97 bitrate= 257.5kbits/s dup=1 drop=0 speed=6.73x    frame=23622 fps=161 q=32.0 size=   30999kB time=00:16:25.40 bitrate= 257.7kbits/s dup=1 drop=0 speed=6.72x    frame=23706 fps=161 q=32.0 size=   31107kB time=00:16:28.90 bitrate= 257.7kbits/s dup=1 drop=0 speed=6.72x    frame=23784 fps=161 q=32.0 size=   31197kB time=00:16:32.15 bitrate= 257.6kbits/s dup=1 drop=0 speed=6.72x    frame=23857 fps=161 q=32.0 size=   31287kB time=00:16:35.17 bitrate= 257.5kbits/s dup=1 drop=0 speed=6.72x    frame=23923 fps=161 q=29.0 size=   31402kB time=00:16:37.95 bitrate= 257.8kbits/s dup=1 drop=0 speed=6.71x    frame=24023 fps=161 q=32.0 size=   31513kB time=00:16:42.13 bitrate= 257.6kbits/s dup=1 drop=0 speed=6.72x    frame=24091 fps=161 q=32.0 size=   31619kB time=00:16:44.95 bitrate= 257.7kbits/s dup=1 drop=0 speed=6.71x    frame=24230 fps=161 q=32.0 size=   31728kB time=00:16:50.75 bitrate= 257.2kbits/s dup=1 drop=0 speed=6.73x    frame=24428 fps=162 q=29.0 size=   31834kB time=00:16:59.03 bitrate= 255.9kbits/s dup=1 drop=0 speed=6.76x    frame=24624 fps=163 q=32.0 size=   31934kB time=00:17:07.17 bitrate= 254.7kbits/s dup=1 drop=0 speed=6.79x    frame=24739 fps=163 q=32.0 size=   32029kB time=00:17:11.95 bitrate= 254.3kbits/s dup=1 drop=0 speed= 6.8x    frame=24808 fps=163 q=32.0 size=   32126kB time=00:17:14.85 bitrate= 254.3kbits/s dup=1 drop=0 speed= 6.8x    frame=24893 fps=163 q=32.0 size=   32233kB time=00:17:18.40 bitrate= 254.3kbits/s dup=1 drop=0 speed= 6.8x    frame=24994 fps=163 q=32.0 size=   32355kB time=00:17:22.58 bitrate= 254.2kbits/s dup=1 drop=0 speed= 6.8x    frame=25096 fps=163 q=32.0 size=   32458kB time=00:17:26.89 bitrate= 254.0kbits/s dup=1 drop=0 speed=6.81x    frame=25251 fps=164 q=32.0 size=   32565kB time=00:17:33.33 bitrate= 253.3kbits/s dup=1 drop=0 speed=6.83x    frame=25349 fps=164 q=32.0 size=   32675kB time=00:17:37.43 bitrate= 253.1kbits/s dup=1 drop=0 speed=6.83x    frame=25478 fps=164 q=32.0 size=   32784kB time=00:17:42.80 bitrate= 252.7kbits/s dup=1 drop=0 speed=6.85x    frame=25563 fps=164 q=32.0 size=   32877kB time=00:17:46.34 bitrate= 252.6kbits/s dup=1 drop=0 speed=6.85x    frame=25622 fps=164 q=32.0 size=   32979kB time=00:17:48.82 bitrate= 252.8kbits/s dup=1 drop=0 speed=6.84x    frame=25672 fps=164 q=32.0 size=   33064kB time=00:17:50.91 bitrate= 252.9kbits/s dup=1 drop=0 speed=6.83x    frame=25728 fps=164 q=32.0 size=   33162kB time=00:17:53.21 bitrate= 253.1kbits/s dup=1 drop=0 speed=6.82x    frame=25799 fps=164 q=32.0 size=   33264kB time=00:17:56.20 bitrate= 253.2kbits/s dup=1 drop=0 speed=6.82x    frame=25885 fps=164 q=32.0 size=   33373kB time=00:17:59.78 bitrate= 253.2kbits/s dup=1 drop=0 speed=6.82x    frame=26000 fps=164 q=32.0 size=   33453kB time=00:18:04.56 bitrate= 252.7kbits/s dup=1 drop=0 speed=6.83x    frame=26124 fps=164 q=32.0 size=   33555kB time=00:18:09.72 bitrate= 252.2kbits/s dup=1 drop=0 speed=6.84x    frame=26239 fps=164 q=32.0 size=   33664kB time=00:18:14.55 bitrate= 252.0kbits/s dup=1 drop=0 speed=6.85x    frame=26310 fps=164 q=32.0 size=   33732kB time=00:18:17.49 bitrate= 251.8kbits/s dup=1 drop=0 speed=6.85x    frame=26367 fps=164 q=32.0 size=   33800kB time=00:18:19.88 bitrate= 251.7kbits/s dup=1 drop=0 speed=6.84x    frame=26418 fps=164 q=32.0 size=   33894kB time=00:18:22.01 bitrate= 252.0kbits/s dup=1 drop=0 speed=6.83x    frame=26499 fps=164 q=32.0 size=   33973kB time=00:18:25.38 bitrate= 251.8kbits/s dup=1 drop=0 speed=6.83x    frame=26550 fps=164 q=32.0 size=   34043kB time=00:18:27.52 bitrate= 251.8kbits/s dup=1 drop=0 speed=6.82x    frame=26612 fps=163 q=32.0 size=   34130kB time=00:18:30.08 bitrate= 251.9kbits/s dup=1 drop=0 speed=6.82x    frame=26672 fps=163 q=32.0 size=   34213kB time=00:18:32.59 bitrate= 251.9kbits/s dup=1 drop=0 speed=6.81x    frame=26745 fps=163 q=32.0 size=   34300kB time=00:18:35.62 bitrate= 251.9kbits/s dup=1 drop=0 speed=6.81x    frame=26846 fps=163 q=32.0 size=   34400kB time=00:18:39.85 bitrate= 251.6kbits/s dup=1 drop=0 speed=6.81x    frame=26938 fps=163 q=32.0 size=   34495kB time=00:18:43.69 bitrate= 251.5kbits/s dup=1 drop=0 speed=6.81x    frame=27016 fps=163 q=32.0 size=   34574kB time=00:18:46.93 bitrate= 251.3kbits/s dup=1 drop=0 speed=6.81x    frame=27119 fps=163 q=32.0 size=   34689kB time=00:18:51.24 bitrate= 251.2kbits/s dup=1 drop=0 speed=6.82x    frame=27204 fps=163 q=32.0 size=   34789kB time=00:18:54.78 bitrate= 251.1kbits/s dup=1 drop=0 speed=6.82x    frame=27269 fps=163 q=32.0 size=   34865kB time=00:18:57.51 bitrate= 251.1kbits/s dup=1 drop=0 speed=6.81x    frame=27331 fps=163 q=32.0 size=   34950kB time=00:19:00.07 bitrate= 251.1kbits/s dup=1 drop=0 speed=6.81x    frame=27405 fps=163 q=32.0 size=   35032kB time=00:19:03.14 bitrate= 251.0kbits/s dup=1 drop=0 speed=6.81x    frame=27487 fps=163 q=32.0 size=   35126kB time=00:19:06.60 bitrate= 251.0kbits/s dup=1 drop=0 speed=6.81x    frame=27542 fps=163 q=32.0 size=   35261kB time=00:19:08.86 bitrate= 251.4kbits/s dup=1 drop=0 speed= 6.8x    frame=27602 fps=163 q=32.0 size=   35379kB time=00:19:11.38 bitrate= 251.7kbits/s dup=1 drop=0 speed= 6.8x    frame=27706 fps=163 q=32.0 size=   35480kB time=00:19:15.73 bitrate= 251.5kbits/s dup=1 drop=0 speed= 6.8x    frame=27781 fps=163 q=32.0 size=   35598kB time=00:19:18.84 bitrate= 251.6kbits/s dup=1 drop=0 speed= 6.8x    frame=27842 fps=163 q=32.0 size=   35721kB time=00:19:21.40 bitrate= 252.0kbits/s dup=1 drop=0 speed=6.79x    frame=27936 fps=163 q=32.0 size=   35840kB time=00:19:25.33 bitrate= 251.9kbits/s dup=1 drop=0 speed= 6.8x    frame=28021 fps=163 q=32.0 size=   35922kB time=00:19:28.87 bitrate= 251.8kbits/s dup=1 drop=0 speed= 6.8x    frame=28068 fps=163 q=32.0 size=   36010kB time=00:19:30.83 bitrate= 251.9kbits/s dup=1 drop=0 speed=6.79x    frame=28115 fps=162 q=32.0 size=   36145kB time=00:19:32.80 bitrate= 252.5kbits/s dup=1 drop=0 speed=6.78x    frame=28157 fps=162 q=32.0 size=   36261kB time=00:19:34.55 bitrate= 252.9kbits/s dup=1 drop=0 speed=6.77x    frame=28255 fps=162 q=32.0 size=   36395kB time=00:19:38.64 bitrate= 253.0kbits/s dup=1 drop=0 speed=6.77x    frame=28322 fps=162 q=32.0 size=   36502kB time=00:19:41.41 bitrate= 253.1kbits/s dup=1 drop=0 speed=6.77x    frame=28385 fps=162 q=32.0 size=   36588kB time=00:19:44.02 bitrate= 253.1kbits/s dup=1 drop=0 speed=6.76x    frame=28463 fps=162 q=32.0 size=   36700kB time=00:19:47.26 bitrate= 253.2kbits/s dup=1 drop=0 speed=6.76x    frame=28526 fps=162 q=32.0 size=   36798kB time=00:19:49.91 bitrate= 253.3kbits/s dup=1 drop=0 speed=6.76x    frame=28588 fps=162 q=32.0 size=   36910kB time=00:19:52.51 bitrate= 253.6kbits/s dup=1 drop=0 speed=6.75x    frame=28680 fps=162 q=32.0 size=   37016kB time=00:19:56.35 bitrate= 253.5kbits/s dup=1 drop=0 speed=6.75x    frame=28758 fps=162 q=32.0 size=   37120kB time=00:19:59.59 bitrate= 253.5kbits/s dup=1 drop=0 speed=6.75x    frame=28857 fps=162 q=32.0 size=   37245kB time=00:20:03.73 bitrate= 253.5kbits/s dup=1 drop=0 speed=6.76x    frame=28984 fps=162 q=32.0 size=   37362kB time=00:20:09.02 bitrate= 253.2kbits/s dup=1 drop=0 speed=6.77x    frame=29040 fps=162 q=32.0 size=   37477kB time=00:20:11.37 bitrate= 253.4kbits/s dup=1 drop=0 speed=6.76x    frame=29156 fps=162 q=32.0 size=   37607kB time=00:20:16.19 bitrate= 253.3kbits/s dup=1 drop=0 speed=6.77x    frame=29256 fps=162 q=32.0 size=   37699kB time=00:20:20.37 bitrate= 253.1kbits/s dup=1 drop=0 speed=6.77x    frame=29330 fps=162 q=32.0 size=   37797kB time=00:20:23.48 bitrate= 253.1kbits/s dup=1 drop=0 speed=6.77x    frame=29439 fps=163 q=32.0 size=   37899kB time=00:20:28.01 bitrate= 252.8kbits/s dup=1 drop=0 speed=6.78x    frame=29521 fps=163 q=32.0 size=   37971kB time=00:20:31.42 bitrate= 252.6kbits/s dup=1 drop=0 speed=6.78x    frame=29578 fps=162 q=32.0 size=   38065kB time=00:20:33.81 bitrate= 252.7kbits/s dup=1 drop=0 speed=6.77x    frame=29646 fps=162 q=32.0 size=   38172kB time=00:20:36.63 bitrate= 252.9kbits/s dup=1 drop=0 speed=6.77x    frame=29725 fps=162 q=32.0 size=   38259kB time=00:20:39.91 bitrate= 252.8kbits/s dup=1 drop=0 speed=6.77x    frame=29800 fps=162 q=32.0 size=   38346kB time=00:20:43.03 bitrate= 252.7kbits/s dup=1 drop=0 speed=6.77x    frame=29855 fps=162 q=32.0 size=   38433kB time=00:20:45.33 bitrate= 252.8kbits/s dup=1 drop=0 speed=6.76x    frame=29956 fps=162 q=32.0 size=   38520kB time=00:20:49.60 bitrate= 252.5kbits/s dup=1 drop=0 speed=6.77x    frame=30001 fps=162 q=32.0 size=   38656kB time=00:20:51.43 bitrate= 253.0kbits/s dup=1 drop=0 speed=6.76x    frame=30095 fps=162 q=32.0 size=   38745kB time=00:20:55.36 bitrate= 252.8kbits/s dup=1 drop=0 speed=6.76x    frame=30223 fps=162 q=32.0 size=   38837kB time=00:21:00.73 bitrate= 252.4kbits/s dup=1 drop=0 speed=6.77x    frame=30338 fps=162 q=32.0 size=   38927kB time=00:21:05.51 bitrate= 252.0kbits/s dup=1 drop=0 speed=6.78x    frame=30422 fps=162 q=32.0 size=   39007kB time=00:21:09.01 bitrate= 251.8kbits/s dup=1 drop=0 speed=6.78x    frame=30487 fps=162 q=32.0 size=   39100kB time=00:21:11.70 bitrate= 251.9kbits/s dup=1 drop=0 speed=6.77x    frame=30545 fps=162 q=32.0 size=   39213kB time=00:21:14.13 bitrate= 252.1kbits/s dup=1 drop=0 speed=6.77x    frame=30610 fps=162 q=32.0 size=   39292kB time=00:21:16.86 bitrate= 252.1kbits/s dup=1 drop=0 speed=6.76x    frame=30669 fps=162 q=32.0 size=   39384kB time=00:21:19.33 bitrate= 252.2kbits/s dup=1 drop=0 speed=6.76x    frame=30724 fps=162 q=32.0 size=   39461kB time=00:21:21.60 bitrate= 252.2kbits/s dup=1 drop=0 speed=6.75x    frame=30780 fps=162 q=32.0 size=   39553kB time=00:21:23.94 bitrate= 252.4kbits/s dup=1 drop=0 speed=6.75x    frame=30838 fps=162 q=32.0 size=   39632kB time=00:21:26.33 bitrate= 252.4kbits/s dup=1 drop=0 speed=6.74x    frame=30888 fps=161 q=32.0 size=   39695kB time=00:21:28.42 bitrate= 252.4kbits/s dup=1 drop=0 speed=6.73x    frame=30946 fps=161 q=32.0 size=   39817kB time=00:21:30.85 bitrate= 252.7kbits/s dup=1 drop=0 speed=6.73x    frame=31007 fps=161 q=32.0 size=   39921kB time=00:21:33.41 bitrate= 252.8kbits/s dup=1 drop=0 speed=6.72x    frame=31059 fps=161 q=32.0 size=   40093kB time=00:21:35.55 bitrate= 253.5kbits/s dup=1 drop=0 speed=6.72x    frame=31102 fps=161 q=32.0 size=   40208kB time=00:21:37.38 bitrate= 253.9kbits/s dup=1 drop=0 speed=6.71x    frame=31151 fps=161 q=32.0 size=   40344kB time=00:21:39.39 bitrate= 254.3kbits/s dup=1 drop=0 speed= 6.7x    frame=31204 fps=161 q=32.0 size=   40469kB time=00:21:41.61 bitrate= 254.7kbits/s dup=1 drop=0 speed= 6.7x    frame=31258 fps=160 q=32.0 size=   40622kB time=00:21:43.87 bitrate= 255.2kbits/s dup=1 drop=0 speed=6.69x    frame=31307 fps=160 q=32.0 size=   40718kB time=00:21:45.92 bitrate= 255.4kbits/s dup=1 drop=0 speed=6.68x    frame=31341 fps=160 q=32.0 size=   40863kB time=00:21:47.32 bitrate= 256.1kbits/s dup=1 drop=0 speed=6.67x    frame=31365 fps=160 q=32.0 size=   40945kB time=00:21:48.35 bitrate= 256.4kbits/s dup=1 drop=0 speed=6.66x    frame=31422 fps=160 q=32.0 size=   41079kB time=00:21:50.69 bitrate= 256.7kbits/s dup=1 drop=0 speed=6.65x    frame=31476 fps=159 q=32.0 size=   41179kB time=00:21:52.96 bitrate= 256.9kbits/s dup=1 drop=0 speed=6.65x    frame=31524 fps=159 q=32.0 size=   41284kB time=00:21:54.96 bitrate= 257.2kbits/s dup=1 drop=0 speed=6.64x    frame=31576 fps=159 q=32.0 size=   41425kB time=00:21:57.14 bitrate= 257.6kbits/s dup=1 drop=0 speed=6.64x    frame=31644 fps=159 q=32.0 size=   41529kB time=00:21:59.95 bitrate= 257.7kbits/s dup=1 drop=0 speed=6.63x    frame=31707 fps=159 q=32.0 size=   41645kB time=00:22:02.60 bitrate= 257.9kbits/s dup=1 drop=0 speed=6.63x    frame=31753 fps=159 q=32.0 size=   41759kB time=00:22:04.52 bitrate= 258.3kbits/s dup=1 drop=0 speed=6.62x    frame=31811 fps=159 q=32.0 size=   41868kB time=00:22:06.91 bitrate= 258.5kbits/s dup=1 drop=0 speed=6.62x    frame=31873 fps=159 q=32.0 size=   41969kB time=00:22:09.51 bitrate= 258.6kbits/s dup=1 drop=0 speed=6.61x    frame=31933 fps=158 q=32.0 size=   42065kB time=00:22:12.03 bitrate= 258.7kbits/s dup=1 drop=0 speed=6.61x    frame=31985 fps=158 q=32.0 size=   42172kB time=00:22:14.20 bitrate= 258.9kbits/s dup=1 drop=0 speed= 6.6x    frame=32037 fps=158 q=32.0 size=   42285kB time=00:22:16.38 bitrate= 259.2kbits/s dup=1 drop=0 speed= 6.6x    frame=32116 fps=158 q=32.0 size=   42360kB time=00:22:19.67 bitrate= 259.0kbits/s dup=1 drop=0 speed= 6.6x    frame=32163 fps=158 q=32.0 size=   42514kB time=00:22:21.63 bitrate= 259.6kbits/s dup=1 drop=0 speed=6.59x    frame=32212 fps=158 q=32.0 size=   42643kB time=00:22:23.63 bitrate= 260.0kbits/s dup=1 drop=0 speed=6.58x    frame=32275 fps=158 q=32.0 size=   42735kB time=00:22:26.28 bitrate= 260.0kbits/s dup=1 drop=0 speed=6.58x    frame=32331 fps=158 q=32.0 size=   42887kB time=00:22:28.63 bitrate= 260.5kbits/s dup=1 drop=0 speed=6.58x    frame=32382 fps=157 q=32.0 size=   43013kB time=00:22:30.76 bitrate= 260.9kbits/s dup=1 drop=0 speed=6.57x    frame=32440 fps=157 q=32.0 size=   43130kB time=00:22:33.15 bitrate= 261.1kbits/s dup=1 drop=0 speed=6.56x    frame=32484 fps=157 q=32.0 size=   43245kB time=00:22:35.03 bitrate= 261.4kbits/s dup=1 drop=0 speed=6.56x    frame=32528 fps=157 q=32.0 size=   43405kB time=00:22:36.82 bitrate= 262.1kbits/s dup=1 drop=0 speed=6.55x    frame=32583 fps=157 q=32.0 size=   43521kB time=00:22:39.12 bitrate= 262.3kbits/s dup=1 drop=0 speed=6.55x    frame=32646 fps=157 q=32.0 size=   43628kB time=00:22:41.77 bitrate= 262.5kbits/s dup=1 drop=0 speed=6.54x    frame=32740 fps=157 q=32.0 size=   43752kB time=00:22:45.69 bitrate= 262.4kbits/s dup=1 drop=0 speed=6.55x    frame=32801 fps=157 q=32.0 size=   43868kB time=00:22:48.25 bitrate= 262.6kbits/s dup=1 drop=0 speed=6.54x    frame=32864 fps=157 q=32.0 size=   43974kB time=00:22:50.85 bitrate= 262.8kbits/s dup=1 drop=0 speed=6.54x    frame=32970 fps=157 q=32.0 size=   44092kB time=00:22:55.25 bitrate= 262.6kbits/s dup=1 drop=0 speed=6.54x    frame=33098 fps=157 q=32.0 size=   44221kB time=00:23:00.63 bitrate= 262.4kbits/s dup=1 drop=0 speed=6.55x    frame=33169 fps=157 q=32.0 size=   44330kB time=00:23:03.57 bitrate= 262.5kbits/s dup=1 drop=0 speed=6.55x    frame=33248 fps=157 q=32.0 size=   44421kB time=00:23:06.85 bitrate= 262.4kbits/s dup=1 drop=0 speed=6.55x    frame=33323 fps=157 q=32.0 size=   44558kB time=00:23:10.01 bitrate= 262.6kbits/s dup=1 drop=0 speed=6.55x    frame=33402 fps=157 q=32.0 size=   44639kB time=00:23:13.30 bitrate= 262.5kbits/s dup=1 drop=0 speed=6.55x    frame=33472 fps=157 q=32.0 size=   44719kB time=00:23:16.20 bitrate= 262.4kbits/s dup=1 drop=0 speed=6.55x    frame=33530 fps=157 q=32.0 size=   44873kB time=00:23:18.63 bitrate= 262.8kbits/s dup=1 drop=0 speed=6.54x    frame=33590 fps=157 q=32.0 size=   44970kB time=00:23:21.15 bitrate= 262.9kbits/s dup=1 drop=0 speed=6.54x    frame=33678 fps=157 q=32.0 size=   45058kB time=00:23:24.82 bitrate= 262.7kbits/s dup=1 drop=0 speed=6.54x    frame=33790 fps=157 q=32.0 size=   45189kB time=00:23:29.51 bitrate= 262.6kbits/s dup=1 drop=0 speed=6.55x    frame=33874 fps=157 q=32.0 size=   45264kB time=00:23:32.97 bitrate= 262.4kbits/s dup=1 drop=0 speed=6.55x    frame=33958 fps=157 q=32.0 size=   45385kB time=00:23:36.47 bitrate= 262.5kbits/s dup=1 drop=0 speed=6.55x    frame=34024 fps=157 q=32.0 size=   45490kB time=00:23:39.24 bitrate= 262.6kbits/s dup=1 drop=0 speed=6.55x    frame=34074 fps=157 q=32.0 size=   45580kB time=00:23:41.33 bitrate= 262.7kbits/s dup=1 drop=0 speed=6.54x    frame=34125 fps=157 q=32.0 size=   45686kB time=00:23:43.46 bitrate= 262.9kbits/s dup=1 drop=0 speed=6.54x    frame=34194 fps=157 q=32.0 size=   45791kB time=00:23:46.32 bitrate= 263.0kbits/s dup=1 drop=0 speed=6.53x    frame=34292 fps=157 q=32.0 size=   45890kB time=00:23:50.42 bitrate= 262.8kbits/s dup=1 drop=0 speed=6.54x    frame=34341 fps=157 q=32.0 size=   46025kB time=00:23:52.47 bitrate= 263.2kbits/s dup=1 drop=0 speed=6.53x    frame=34396 fps=156 q=32.0 size=   46146kB time=00:23:54.77 bitrate= 263.5kbits/s dup=1 drop=0 speed=6.53x    frame=34448 fps=156 q=32.0 size=   46285kB time=00:23:56.90 bitrate= 263.9kbits/s dup=1 drop=0 speed=6.52x    frame=34504 fps=156 q=32.0 size=   46376kB time=00:23:59.29 bitrate= 264.0kbits/s dup=1 drop=0 speed=6.52x    frame=34590 fps=156 q=32.0 size=   46482kB time=00:24:02.83 bitrate= 263.9kbits/s dup=1 drop=0 speed=6.52x    frame=34677 fps=156 q=32.0 size=   46574kB time=00:24:06.46 bitrate= 263.8kbits/s dup=1 drop=0 speed=6.52x    frame=34759 fps=156 q=32.0 size=   46686kB time=00:24:09.87 bitrate= 263.8kbits/s dup=1 drop=0 speed=6.52x    frame=34825 fps=156 q=32.0 size=   46768kB time=00:24:12.65 bitrate= 263.7kbits/s dup=1 drop=0 speed=6.52x    frame=34917 fps=156 q=32.0 size=   46885kB time=00:24:16.49 bitrate= 263.7kbits/s dup=1 drop=0 speed=6.52x    frame=35022 fps=156 q=32.0 size=   46999kB time=00:24:20.88 bitrate= 263.6kbits/s dup=1 drop=0 speed=6.52x    frame=35084 fps=156 q=32.0 size=   47062kB time=00:24:23.44 bitrate= 263.4kbits/s dup=1 drop=0 speed=6.52x    [mp4 @ 0x2564440] Starting second pass: moving the moov atom to the beginning of the file
frame=35197 fps=156 q=-1.0 Lsize=   48057kB time=00:24:27.96 bitrate= 268.2kbits/s dup=1 drop=0 speed=6.52x    
video:37707kB audio:9516kB subtitle:0kB other streams:0kB global headers:0kB muxing overhead: 1.764301%
[libx264 @ 0x25d5640] frame I:295   Avg QP:20.15  size: 11472
[libx264 @ 0x25d5640] frame P:11839 Avg QP:23.55  size:  2268
[libx264 @ 0x25d5640] frame B:23063 Avg QP:25.70  size:   363
[libx264 @ 0x25d5640] consecutive B-frames:  3.9%  9.7% 49.8% 36.7%
[libx264 @ 0x25d5640] mb I  I16..4: 33.7% 50.2% 16.1%
[libx264 @ 0x25d5640] mb P  I16..4:  5.8%  6.9%  1.1%  P16..4: 27.9%  4.8%  3.1%  0.1%  0.0%    skip:50.3%
[libx264 @ 0x25d5640] mb B  I16..4:  0.4%  0.3%  0.0%  B16..8: 14.4%  1.0%  0.1%  direct: 0.6%  skip:83.1%  L0:40.7% L1:57.8% BI: 1.5%
[libx264 @ 0x25d5640] 8x8 transform intra:49.8% inter:62.2%
[libx264 @ 0x25d5640] coded y,uvDC,uvAC intra: 22.5% 42.8% 4.9% inter: 1.3% 3.5% 0.0%
[libx264 @ 0x25d5640] i16 v,h,dc,p: 46% 32% 14%  8%
[libx264 @ 0x25d5640] i8 v,h,dc,ddl,ddr,vr,hd,vl,hu: 24% 18% 45%  3%  2%  2%  2%  2%  3%
[libx264 @ 0x25d5640] i4 v,h,dc,ddl,ddr,vr,hd,vl,hu: 30% 20% 22%  5%  5%  5%  5%  4%  4%
[libx264 @ 0x25d5640] i8c dc,h,v,p: 46% 26% 23%  5%
[libx264 @ 0x25d5640] Weighted P-Frames: Y:1.4% UV:1.0%
[libx264 @ 0x25d5640] ref P L0: 64.9%  8.1% 12.8%  4.2%  3.0%  2.6%  2.1%  1.4%  0.8%  0.0%
[libx264 @ 0x25d5640] ref B L0: 81.5%  9.2%  4.4%  1.6%  1.4%  1.1%  0.8%
[libx264 @ 0x25d5640] ref B L1: 91.8%  8.2%
[libx264 @ 0x25d5640] kb/s:210.42
